<?xml version="1.0" standalone="no"?>
<!DOCTYPE svg PUBLIC "-//W3C//DTD SVG 20010904//EN"
 "http://www.w3.org/TR/2001/REC-SVG-20010904/DTD/svg10.dtd">
<svg version="1.0" xmlns="http://www.w3.org/2000/svg"
 width="512.000000pt" height="512.000000pt" viewBox="0 0 512.000000 512.000000"
 preserveAspectRatio="xMidYMid meet">
<metadata>
Created by potrace 1.11, written by Peter Selinger 2001-2013
</metadata>
<g transform="translate(0.000000,512.000000) scale(0.100000,-0.100000)"
fill="#000000" stroke="none">
<path d="M1220 5109 c-14 -6 -36 -20 -48 -32 -45 -42 -52 -77 -52 -263 l0
-173 -392 -3 c-439 -3 -442 -4 -544 -77 -69 -49 -108 -96 -146 -177 l-33 -69
-3 -1959 c-1 -1250 1 -1979 7 -2013 26 -140 124 -255 271 -318 44 -20 87 -20
2265 -22 2199 -2 2221 -1 2279 18 141 48 243 158 282 304 11 41 13 398 11
2020 l-2 1970 -36 75 c-54 111 -133 184 -239 223 -67 25 -76 25 -472 26 l-366
1 -4 189 c-3 207 -6 216 -72 265 -38 29 -134 29 -172 0 -66 -49 -69 -58 -72
-265 l-4 -189 -479 0 -479 0 0 175 c0 195 -6 223 -59 267 -58 50 -150 47 -210
-6 -44 -39 -51 -73 -51 -261 l0 -175 -479 0 -479 0 -4 189 c-3 174 -5 192 -24
218 -46 62 -129 89 -194 62z m-100 -964 c0 -96 0 -177 0 -180 0 -3 6 -18 14
-34 48 -91 170 -118 247 -54 52 44 59 77 59 269 l0 174 480 0 480 0 1 -172 c1
-198 1 -203 26 -237 38 -49 70 -66 132 -66 48 0 64 5 96 29 59 45 65 72 65
271 l0 175 479 0 479 0 4 -189 c3 -173 5 -192 24 -217 63 -84 166 -97 243 -30
44 39 51 73 51 261 l0 176 370 -3 370 -3 27 -28 28 -27 3 -1935 2 -1935 -29
-32 -29 -33 -2181 0 -2181 0 -27 28 -28 27 -2 1937 -3 1936 36 33 35 34 365 0
364 0 0 -175z"/>
<path d="M1120 2960 l0 -240 320 0 320 0 0 240 0 240 -320 0 -320 0 0 -240z"/>
<path d="M2240 2960 l0 -240 320 0 320 0 0 240 0 240 -320 0 -320 0 0 -240z"/>
<path d="M3360 2960 l0 -240 320 0 320 0 0 240 0 240 -320 0 -320 0 0 -240z"/>
<path d="M1120 2160 l0 -240 320 0 320 0 0 240 0 240 -320 0 -320 0 0 -240z"/>
<path d="M2240 2160 l0 -240 320 0 320 0 0 240 0 240 -320 0 -320 0 0 -240z"/>
<path d="M3360 2160 l0 -240 320 0 320 0 0 240 0 240 -320 0 -320 0 0 -240z"/>
<path d="M1120 1360 l0 -240 320 0 320 0 0 240 0 240 -320 0 -320 0 0 -240z"/>
<path d="M2240 1360 l0 -240 320 0 320 0 0 240 0 240 -320 0 -320 0 0 -240z"/>
<path d="M3360 1360 l0 -240 320 0 320 0 0 240 0 240 -320 0 -320 0 0 -240z"/>
</g>
</svg>
